<?xml version="1.0" encoding="utf-8"?>
<!-- Generator: Adobe Illustrator 16.0.0, SVG Export Plug-In . SVG Version: 6.00 Build 0)  -->
<!DOCTYPE svg PUBLIC "-//W3C//DTD SVG 1.1//EN" "http://www.w3.org/Graphics/SVG/1.1/DTD/svg11.dtd">
<svg version="1.1" id="Layer_1" xmlns="http://www.w3.org/2000/svg" xmlns:xlink="http://www.w3.org/1999/xlink" x="0px" y="0px"
	 width="456px" height="456px" viewBox="0 0 456 456" enable-background="new 0 0 456 456" xml:space="preserve">
<rect x="0" fill="#1F499E" width="456" height="456"/>
<path fill="#FFFFFF" d="M76.265,402.205v-11.23l37.602-2.439V67.469l-37.602-2.436V53.795h123.051
	c33.044,0,61.358,4.153,84.966,12.452c23.591,8.303,42.27,20.354,56.026,36.134c13.757,15.796,23.756,34.107,30.023,54.94
	c6.268,20.842,9.405,44.92,9.405,72.26c0,19.71-2.031,38.054-6.103,55.064c-4.063,17.006-10.536,32.794-19.413,47.364
	c-8.868,14.565-19.934,27.018-33.203,37.352s-29.544,18.394-48.825,24.17c-19.28,5.779-40.891,8.674-64.816,8.674H76.265z
	 M176.366,386.339c8.794,1.626,16.76,2.439,23.925,2.439c16.597,0,31.374-2.688,44.313-8.055
	c12.939-5.371,23.765-12.828,32.468-22.349s15.912-21.159,21.618-34.912c5.681-13.752,9.793-28.678,12.319-44.792
	c2.527-16.131,3.782-33.789,3.782-52.995c0-18.868-0.892-35.722-2.684-50.535c-1.792-14.801-5.169-29.214-10.132-43.219
	c-4.971-13.996-11.519-25.544-19.652-34.66c-8.142-9.125-18.876-16.399-32.22-21.849c-13.353-5.454-28.978-8.187-46.877-8.187
	c-9.128,0-18.067,0.83-26.861,2.44V386.339z"/>
</svg>
